<?xml version="1.0"?>
<svg xmlns="http://www.w3.org/2000/svg" xmlns:xlink="http://www.w3.org/1999/xlink" version="1.1" viewBox="0 0 192 192" width="24px" height="24px"><g fill="none" fill-rule="nonzero" stroke="none" stroke-width="1" stroke-linecap="butt" stroke-linejoin="miter" stroke-miterlimit="10" stroke-dasharray="" stroke-dashoffset="0" font-family="none" font-weight="none" font-size="none" text-anchor="none" style="mix-blend-mode: normal"><path d="M0,192v-192h192v192z" fill="none"/><g fill="#ffffff"><path d="M72,16c-30.83319,0 -56,25.16681 -56,56c0,30.83319 25.16681,56 56,56c13.98398,0 26.76007,-5.21581 36.59375,-13.75l3.40625,3.40625v10.34375l48,48l16,-16l-48,-48h-10.34375l-3.40625,-3.40625c8.53419,-9.83368 13.75,-22.60977 13.75,-36.59375c0,-30.83319 -25.16681,-56 -56,-56zM72,32c22.18614,0 40,17.81385 40,40c0,22.18614 -17.81386,40 -40,40c-22.18615,0 -40,-17.81386 -40,-40c0,-22.18615 17.81385,-40 40,-40z"/></g></g></svg>
